<mxfile host="app.diagrams.net" agent="Mozilla/5.0 (Windows NT 10.0; Win64; x64) AppleWebKit/537.36 (KHTML, like Gecko) Chrome/132.0.0.0 Safari/537.36 Edg/132.0.0.0" version="26.0.16">
  <diagram name="Page-1" id="vwUtHEv3MW-ciVxSL8i4">
    <mxGraphModel dx="1843" dy="590" grid="1" gridSize="10" guides="1" tooltips="1" connect="1" arrows="1" fold="1" page="1" pageScale="1" pageWidth="850" pageHeight="1100" math="0" shadow="0">
      <root>
        <mxCell id="0" />
        <mxCell id="1" parent="0" />
        <mxCell id="touZf_Zq_0qJpdEKHuLS-1" value="Design" style="ellipse;whiteSpace=wrap;html=1;aspect=fixed;fontStyle=1" vertex="1" parent="1">
          <mxGeometry x="280" y="440" width="80" height="80" as="geometry" />
        </mxCell>
        <mxCell id="touZf_Zq_0qJpdEKHuLS-2" value="What are the&amp;nbsp;&lt;div&gt;&lt;b&gt;loads&lt;/b&gt;?&lt;/div&gt;" style="ellipse;shape=cloud;whiteSpace=wrap;html=1;fillColor=#fff2cc;strokeColor=#d6b656;" vertex="1" parent="1">
          <mxGeometry x="270" y="211.82" width="120" height="80" as="geometry" />
        </mxCell>
        <mxCell id="touZf_Zq_0qJpdEKHuLS-3" value="" style="whiteSpace=wrap;html=1;fontFamily=Helvetica;fontSize=11;fontColor=default;labelBackgroundColor=default;" vertex="1" parent="1">
          <mxGeometry x="60" y="280.0700000000001" width="230" height="148.75" as="geometry" />
        </mxCell>
        <mxCell id="touZf_Zq_0qJpdEKHuLS-4" value="" style="rounded=0;whiteSpace=wrap;html=1;fontFamily=Helvetica;fontSize=11;labelBackgroundColor=default;fillColor=#f5f5f5;gradientColor=#b3b3b3;strokeColor=#666666;" vertex="1" parent="1">
          <mxGeometry x="80" y="291.8200000000001" width="10" height="130" as="geometry" />
        </mxCell>
        <mxCell id="touZf_Zq_0qJpdEKHuLS-5" value="" style="shape=flexArrow;endArrow=classic;html=1;rounded=0;strokeColor=default;align=center;verticalAlign=middle;fontFamily=Helvetica;fontSize=11;fontColor=default;labelBackgroundColor=default;" edge="1" parent="1">
          <mxGeometry width="50" height="50" relative="1" as="geometry">
            <mxPoint x="174.16999999999996" y="242.93999999999988" as="sourcePoint" />
            <mxPoint x="174.16999999999996" y="324.19" as="targetPoint" />
          </mxGeometry>
        </mxCell>
        <mxCell id="touZf_Zq_0qJpdEKHuLS-6" value="" style="rounded=0;whiteSpace=wrap;html=1;fontFamily=Helvetica;fontSize=11;fontColor=default;labelBackgroundColor=default;dashed=1;" vertex="1" parent="1">
          <mxGeometry x="90" y="321.56" width="150" height="61.38" as="geometry" />
        </mxCell>
        <mxCell id="touZf_Zq_0qJpdEKHuLS-7" value="Its up to you to create the path of stress" style="whiteSpace=wrap;html=1;fontFamily=Helvetica;fontSize=11;fontColor=default;labelBackgroundColor=default;" vertex="1" parent="1">
          <mxGeometry x="320" y="345.8800000000001" width="120" height="60" as="geometry" />
        </mxCell>
        <mxCell id="touZf_Zq_0qJpdEKHuLS-8" value="Is it eccentrically Loaded??" style="ellipse;shape=cloud;whiteSpace=wrap;html=1;fillColor=#fff2cc;strokeColor=#d6b656;" vertex="1" parent="1">
          <mxGeometry x="340" y="265.88" width="120" height="80" as="geometry" />
        </mxCell>
        <mxCell id="touZf_Zq_0qJpdEKHuLS-9" value="For Tension" style="rounded=0;whiteSpace=wrap;html=1;" vertex="1" parent="1">
          <mxGeometry x="25" y="540" width="115" height="50" as="geometry" />
        </mxCell>
        <mxCell id="touZf_Zq_0qJpdEKHuLS-10" value="For Compression" style="rounded=0;whiteSpace=wrap;html=1;" vertex="1" parent="1">
          <mxGeometry x="160" y="540" width="115" height="50" as="geometry" />
        </mxCell>
        <mxCell id="touZf_Zq_0qJpdEKHuLS-11" value="For Flexure" style="rounded=0;whiteSpace=wrap;html=1;" vertex="1" parent="1">
          <mxGeometry x="300" y="540" width="115" height="50" as="geometry" />
        </mxCell>
        <mxCell id="touZf_Zq_0qJpdEKHuLS-12" value="For Shear" style="rounded=0;whiteSpace=wrap;html=1;" vertex="1" parent="1">
          <mxGeometry x="430" y="540" width="115" height="50" as="geometry" />
        </mxCell>
        <mxCell id="touZf_Zq_0qJpdEKHuLS-13" value="&lt;b&gt;Yield Strength&lt;/b&gt;&lt;div&gt;&lt;b&gt;Young&#39;s Modulus&lt;/b&gt;&lt;/div&gt;&lt;div&gt;&lt;b&gt;Area&lt;/b&gt;&lt;/div&gt;" style="whiteSpace=wrap;html=1;" vertex="1" parent="1">
          <mxGeometry x="10" y="600" width="120" height="60" as="geometry" />
        </mxCell>
        <mxCell id="touZf_Zq_0qJpdEKHuLS-14" value="Area&lt;div&gt;Yield Strength&lt;div&gt;&lt;br&gt;&lt;/div&gt;&lt;div&gt;&lt;b&gt;Buckling&lt;/b&gt;:&lt;/div&gt;&lt;div&gt;Slenderness (Height/Wiidth)&lt;/div&gt;&lt;div&gt;&lt;br&gt;&lt;/div&gt;&lt;/div&gt;" style="whiteSpace=wrap;html=1;" vertex="1" parent="1">
          <mxGeometry x="157.5" y="600" width="120" height="110" as="geometry" />
        </mxCell>
        <mxCell id="touZf_Zq_0qJpdEKHuLS-15" value="&lt;b&gt;DRAW YOUR FBD!&lt;/b&gt;" style="whiteSpace=wrap;html=1;" vertex="1" parent="1">
          <mxGeometry x="150" y="450" width="120" height="60" as="geometry" />
        </mxCell>
        <mxCell id="touZf_Zq_0qJpdEKHuLS-16" value="1. Find &lt;b&gt;Demand&lt;/b&gt;" style="whiteSpace=wrap;html=1;" vertex="1" parent="1">
          <mxGeometry y="230" width="100" height="40" as="geometry" />
        </mxCell>
        <mxCell id="touZf_Zq_0qJpdEKHuLS-17" value="LRFD&lt;div&gt;ASD&lt;/div&gt;" style="ellipse;shape=cloud;whiteSpace=wrap;html=1;" vertex="1" parent="1">
          <mxGeometry x="-95" y="265.88" width="120" height="80" as="geometry" />
        </mxCell>
        <mxCell id="touZf_Zq_0qJpdEKHuLS-18" value="Stiffiners" style="whiteSpace=wrap;html=1;" vertex="1" parent="1">
          <mxGeometry x="-370" y="490" width="120" height="60" as="geometry" />
        </mxCell>
        <mxCell id="touZf_Zq_0qJpdEKHuLS-19" value="Bracing" style="whiteSpace=wrap;html=1;" vertex="1" parent="1">
          <mxGeometry x="-340" y="580" width="120" height="60" as="geometry" />
        </mxCell>
        <mxCell id="touZf_Zq_0qJpdEKHuLS-20" value="Depth of Section&lt;div&gt;Moment of Inertia&lt;/div&gt;" style="whiteSpace=wrap;html=1;" vertex="1" parent="1">
          <mxGeometry x="297.5" y="610" width="120" height="60" as="geometry" />
        </mxCell>
      </root>
    </mxGraphModel>
  </diagram>
</mxfile>
